<?xml version="1.0" encoding="UTF-8" standalone="no"?>
<!-- Generator: Adobe Illustrator 27.4.0, SVG Export Plug-In . SVG Version: 6.00 Build 0)  -->

<svg
   version="1.1"
   x="0px"
   y="0px"
   viewBox="0 0 250 249.99999"
   xml:space="preserve"
   id="svg57"
   width="250"
   height="250"
   xmlns="http://www.w3.org/2000/svg"
   xmlns:svg="http://www.w3.org/2000/svg"><defs
   id="defs57" />
<style
   type="text/css"
   id="style1">
	.st0{fill:url(#SVGID_1_);}
	.st1{font-family:'GothamBold';}
	.st2{font-size:215.1452px;}
	.st3{fill:#3FA12A;}
	.st4{fill:#E62828;}
	.st5{fill:#2981EF;}
	.st6{fill:#FABF00;}
	.st7{fill:#81B8EE;}
	.st8{fill:#9FA19E;}
	.st9{fill:#915121;}
	.st10{fill:#AEA981;}
	.st11{fill:#EE4179;}
	.st12{fill:#91A11A;}
	.st13{fill:#9241CC;}
	.st14{fill:#FF7F00;}
	.st15{fill:#3FD9FF;}
	.st16{fill:#704070;}
	.st17{fill:#50413E;}
	.st18{fill:#60A1B7;}
	.st19{fill:#5160E1;}
	.st20{fill:#EE70EE;}
	.st21{fill:#FFFFFF;}
</style>


<path
   class="st21"
   d="m 231.3,68.899995 c 5.5,-6.8 8.8,-15.4 8.8,-24.8 0,-21.8 -17.6,-39.4 -39.4,-39.4 -10.3,0 -19.7,4.0000001 -26.7,10.5 -15,-6.6999999 -31.6,-10.5 -49.1,-10.5 -17.5,0 -34.1,3.7000001 -49.1,10.5 -7,-6.4999999 -16.4,-10.5 -26.7,-10.5 -21.8,0 -39.4,17.6 -39.4,39.4 0,9.4 3.3,18 8.8,24.8 C 9.7,85.599995 4.7,104.7 4.7,125.00001 4.7,191.40001 58.6,245.3 125,245.3 191.4,245.3 245.3,191.4 245.3,125.00001 245.2,104.7 240.2,85.599995 231.3,68.899995 Z M 124.9,207.3 c -45.5,0 -82.4,-36.9 -82.4,-82.4 0,-45.500005 36.9,-82.400005 82.4,-82.400005 45.5,0 82.4,36.9 82.4,82.400005 0,45.5 -36.9,82.4 -82.4,82.4 z"
   id="path29"
   style="fill:#ffffff" />
</svg>
