<?xml version="1.0" encoding="UTF-8" standalone="no"?>
<!-- Generator: Adobe Illustrator 27.4.0, SVG Export Plug-In . SVG Version: 6.00 Build 0)  -->

<svg
   version="1.1"
   x="0px"
   y="0px"
   viewBox="0 0 250.00001 249.99999"
   xml:space="preserve"
   id="svg57"
   width="250"
   height="250"
   xmlns="http://www.w3.org/2000/svg"
   xmlns:svg="http://www.w3.org/2000/svg"><defs
   id="defs57" />
<style
   type="text/css"
   id="style1">
	.st0{fill:url(#SVGID_1_);}
	.st1{font-family:'GothamBold';}
	.st2{font-size:215.1452px;}
	.st3{fill:#3FA12A;}
	.st4{fill:#E62828;}
	.st5{fill:#2981EF;}
	.st6{fill:#FABF00;}
	.st7{fill:#81B8EE;}
	.st8{fill:#9FA19E;}
	.st9{fill:#915121;}
	.st10{fill:#AEA981;}
	.st11{fill:#EE4179;}
	.st12{fill:#91A11A;}
	.st13{fill:#9241CC;}
	.st14{fill:#FF7F00;}
	.st15{fill:#3FD9FF;}
	.st16{fill:#704070;}
	.st17{fill:#50413E;}
	.st18{fill:#60A1B7;}
	.st19{fill:#5160E1;}
	.st20{fill:#EE70EE;}
	.st21{fill:#FFFFFF;}
</style>


<g
   id="g22"
   style="fill:#ffffff"
   transform="translate(-302.20293,-634.19968)">
		<path
   class="st21"
   d="m 543.7,685.4 c -40.6,51.2 -74.4,117.3 -104,192.7 -0.4,0.9 0.3,2 1.3,2 h 71.5 c 0.6,0 1.2,-0.4 1.4,-1.1 13.6,-49.2 23.8,-116.3 32.3,-192.5 0.2,-1.4 -1.6,-2.2 -2.5,-1.1 z"
   id="path20"
   style="fill:#ffffff" />
		<path
   class="st21"
   d="m 420.5,855.2 c 40.8,-54.7 60.3,-127.1 58.3,-217.4 0,-1.3 -1.7,-1.9 -2.6,-0.9 -15,17.6 -30.8,50.7 -47.3,96.7 0,0.1 0,0.1 0,0.2 -11.4,48.3 -14,87.4 -11,120.7 0.1,1.3 1.8,1.8 2.6,0.7 z"
   id="path21"
   style="fill:#ffffff" />
		<path
   class="st21"
   d="M 309.7,882 H 386 c 0.7,0 1.3,-0.5 1.4,-1.2 12.2,-70.6 17.3,-136 13.4,-194.8 -0.1,-1.4 -1.9,-1.9 -2.7,-0.7 -34.9,56.4 -64.5,121.9 -89.9,194.7 -0.1,1 0.6,2 1.5,2 z"
   id="path22"
   style="fill:#ffffff" />
	</g>
</svg>
