<?xml version="1.0" encoding="UTF-8" standalone="no"?>
<!-- Generator: Adobe Illustrator 27.4.0, SVG Export Plug-In . SVG Version: 6.00 Build 0)  -->

<svg
   version="1.1"
   x="0px"
   y="0px"
   viewBox="0 0 249.99998 249.99996"
   xml:space="preserve"
   id="svg57"
   width="250"
   height="250"
   xmlns="http://www.w3.org/2000/svg"
   xmlns:svg="http://www.w3.org/2000/svg"><defs
   id="defs57" />
<style
   type="text/css"
   id="style1">
	.st0{fill:url(#SVGID_1_);}
	.st1{font-family:'GothamBold';}
	.st2{font-size:215.1452px;}
	.st3{fill:#3FA12A;}
	.st4{fill:#E62828;}
	.st5{fill:#2981EF;}
	.st6{fill:#FABF00;}
	.st7{fill:#81B8EE;}
	.st8{fill:#9FA19E;}
	.st9{fill:#915121;}
	.st10{fill:#AEA981;}
	.st11{fill:#EE4179;}
	.st12{fill:#91A11A;}
	.st13{fill:#9241CC;}
	.st14{fill:#FF7F00;}
	.st15{fill:#3FD9FF;}
	.st16{fill:#704070;}
	.st17{fill:#50413E;}
	.st18{fill:#60A1B7;}
	.st19{fill:#5160E1;}
	.st20{fill:#EE70EE;}
	.st21{fill:#FFFFFF;}
</style>


<g
   id="g36"
   style="fill:#ffffff"
   transform="translate(-1433.6,-1893.325)">
		<path
   class="st21"
   d="m 1641.3,1942 c -0.6,-0.6 -1.5,-0.6 -2.1,0 -11.7,12.2 -26.8,21.7 -44,27.3 6.1,10.1 9.7,22.7 9.7,36.5 0,32.9 -20.8,59.6 -46.4,59.6 -25.6,0 -46.4,-26.7 -46.4,-59.6 0,-13.7 3.6,-26.4 9.7,-36.5 -17.2,-5.6 -32.3,-15.1 -44,-27.3 -0.6,-0.6 -1.5,-0.6 -2.1,0 -14.5,16.1 -23.2,36.6 -23.2,58.9 0,52 47.5,94.2 106.1,94.2 58.6,0 106.1,-42.2 106.1,-94.2 -0.2,-22.3 -8.9,-42.7 -23.4,-58.9 z"
   id="path35"
   style="fill:#ffffff" />
		<path
   class="st21"
   d="m 1558.5,1974.7 c -4.1,0 -8.2,-0.2 -12.1,-0.5 -0.6,0 -1.1,0.2 -1.4,0.8 -3.5,6.8 -5.6,16.1 -5.6,26.4 0,20.6 8.6,37.3 19.1,37.3 10.5,0 19.1,-16.7 19.1,-37.3 0,-10.3 -2.1,-19.7 -5.6,-26.4 -0.3,-0.5 -0.8,-0.8 -1.4,-0.8 -4,0.3 -8,0.5 -12.1,0.5 z"
   id="path36"
   style="fill:#ffffff" />
	</g>
</svg>
