<?xml version="1.0" encoding="UTF-8" standalone="no"?>
<!-- Generator: Adobe Illustrator 27.4.0, SVG Export Plug-In . SVG Version: 6.00 Build 0)  -->

<svg
   version="1.1"
   x="0px"
   y="0px"
   viewBox="0 0 250 249.99998"
   xml:space="preserve"
   id="svg57"
   width="250"
   height="250"
   xmlns="http://www.w3.org/2000/svg"
   xmlns:svg="http://www.w3.org/2000/svg"><defs
   id="defs57" />
<style
   type="text/css"
   id="style1">
	.st0{fill:url(#SVGID_1_);}
	.st1{font-family:'GothamBold';}
	.st2{font-size:215.1452px;}
	.st3{fill:#3FA12A;}
	.st4{fill:#E62828;}
	.st5{fill:#2981EF;}
	.st6{fill:#FABF00;}
	.st7{fill:#81B8EE;}
	.st8{fill:#9FA19E;}
	.st9{fill:#915121;}
	.st10{fill:#AEA981;}
	.st11{fill:#EE4179;}
	.st12{fill:#91A11A;}
	.st13{fill:#9241CC;}
	.st14{fill:#FF7F00;}
	.st15{fill:#3FD9FF;}
	.st16{fill:#704070;}
	.st17{fill:#50413E;}
	.st18{fill:#60A1B7;}
	.st19{fill:#5160E1;}
	.st20{fill:#EE70EE;}
	.st21{fill:#FFFFFF;}
</style>


<g
   id="g51"
   style="fill:#ffffff"
   transform="translate(-3133.4,-1260.3809)">
		<path
   class="st21"
   d="M 3190.9,1382.5 H 3168 c -4,0 -7.2,-3.2 -7.2,-7.2 v -94.5 c 0,-2 1.6,-3.6 3.6,-3.6 h 30.1 c 2,0 3.6,1.6 3.6,3.6 v 94.5 c 0,4 -3.2,7.2 -7.2,7.2 z"
   id="path46"
   style="fill:#ffffff" />
		<path
   class="st21"
   d="m 3243.5,1382.5 h -22.9 c -4,0 -7.2,-3.2 -7.2,-7.2 v -94.5 c 0,-2 1.6,-3.6 3.6,-3.6 h 30.1 c 2,0 3.6,1.6 3.6,3.6 v 94.5 c 0,4 -3.2,7.2 -7.2,7.2 z"
   id="path47"
   style="fill:#ffffff" />
		<path
   class="st21"
   d="m 3266,1393.4 v -26 c 0,-2 1.6,-3.6 3.6,-3.6 h 82.8 c 2,0 3.6,1.6 3.6,3.6 v 36.8 c 0,2 -1.6,3.6 -3.6,3.6 h -72 c -8,0 -14.4,-6.4 -14.4,-14.4 z"
   id="path48"
   style="fill:#ffffff" />
		<path
   class="st21"
   d="m 3299.7,1349.2 h -30.1 c -2,0 -3.6,-1.6 -3.6,-3.6 v -64.8 c 0,-2 1.6,-3.6 3.6,-3.6 h 30.1 c 2,0 3.6,1.6 3.6,3.6 v 64.8 c 0,2 -1.6,3.6 -3.6,3.6 z"
   id="path49"
   style="fill:#ffffff" />
		<path
   class="st21"
   d="m 3352.3,1349.2 h -30.1 c -2,0 -3.6,-1.6 -3.6,-3.6 v -64.8 c 0,-2 1.6,-3.6 3.6,-3.6 h 30.1 c 2,0 3.6,1.6 3.6,3.6 v 64.8 c 0,2 -1.6,3.6 -3.6,3.6 z"
   id="path50"
   style="fill:#ffffff" />
		<path
   class="st21"
   d="m 3270.3,1422.2 c -10.3,0 -18.7,-8.4 -18.7,-18.7 v 0 c 0,-1.8 -1.5,-3.2 -3.2,-3.2 h -83.9 c -2,0 -3.6,1.6 -3.6,3.6 v 43.1 c 0,1.1 0.5,2.1 1.4,2.8 l 44.9,35.9 c 9.9,7.9 23.2,10 35.1,5.6 l 111.4,-41.7 c 1.4,-0.5 2.3,-1.9 2.3,-3.4 v -20.7 c 0,-1.8 -1.5,-3.2 -3.2,-3.2 h -82.5 z"
   id="path51"
   style="fill:#ffffff" />
	</g>
</svg>
