<?xml version="1.0" encoding="UTF-8" standalone="no"?>
<!-- Generator: Adobe Illustrator 27.4.0, SVG Export Plug-In . SVG Version: 6.00 Build 0)  -->

<svg
   version="1.1"
   x="0px"
   y="0px"
   viewBox="0 0 249.99999 249.99997"
   xml:space="preserve"
   id="svg57"
   width="250"
   height="250"
   xmlns="http://www.w3.org/2000/svg"
   xmlns:svg="http://www.w3.org/2000/svg"><defs
   id="defs57" />
<style
   type="text/css"
   id="style1">
	.st0{fill:url(#SVGID_1_);}
	.st1{font-family:'GothamBold';}
	.st2{font-size:215.1452px;}
	.st3{fill:#3FA12A;}
	.st4{fill:#E62828;}
	.st5{fill:#2981EF;}
	.st6{fill:#FABF00;}
	.st7{fill:#81B8EE;}
	.st8{fill:#9FA19E;}
	.st9{fill:#915121;}
	.st10{fill:#AEA981;}
	.st11{fill:#EE4179;}
	.st12{fill:#91A11A;}
	.st13{fill:#9241CC;}
	.st14{fill:#FF7F00;}
	.st15{fill:#3FD9FF;}
	.st16{fill:#704070;}
	.st17{fill:#50413E;}
	.st18{fill:#60A1B7;}
	.st19{fill:#5160E1;}
	.st20{fill:#EE70EE;}
	.st21{fill:#FFFFFF;}
</style>


<g
   id="g57"
   style="fill:#ffffff"
   transform="translate(-2566.75,-1873.3016)">
		<path
   class="st21"
   d="m 2736.4,1944.6 c -1.6,-24.9 -7.6,-46.9 -17.4,-66.6 -0.6,-1.2 -2.4,-1 -2.7,0.3 -4.2,19.1 -8.8,35.5 -14,48.8 -3.5,-0.6 -7,-0.9 -10.6,-0.9 -3.6,0 -7.2,0.3 -10.6,0.9 -5.2,-13.3 -9.8,-29.7 -14,-48.8 -0.3,-1.3 -2.1,-1.5 -2.7,-0.3 -9.8,19.7 -15.8,41.7 -17.4,66.6 -13.1,12.8 -21.4,31.1 -21.4,51.4 0,25.4 12.9,47.7 32.1,59.9 v 29.6 c 0,18.7 15.3,33.9 33.9,33.9 18.7,0 33.9,-15.3 33.9,-33.9 v -29.6 c 19.3,-12.2 32.1,-34.4 32.1,-59.9 0.2,-20.3 -8,-38.6 -21.2,-51.4 z m -66.5,92.3 c -7.9,-1.6 -20.2,-7.7 -22.3,-10.7 -6.6,-7.1 -10.5,-22.7 -8.9,-40.6 0.7,-8.1 3.6,-4 5,-1.5 10.6,19.6 20.5,36.4 28.9,48.4 1.5,2.1 -0.3,4.9 -2.7,4.4 z m 66,-10.7 c -2.1,3 -14.4,9.1 -22.3,10.7 -2.4,0.5 -4.1,-2.3 -2.7,-4.4 8.4,-12 18.3,-28.8 28.9,-48.4 1.4,-2.5 4.3,-6.6 5,1.5 1.6,17.9 -2.4,33.5 -8.9,40.6 z"
   id="path54"
   style="fill:#ffffff" />
		<g
   id="g56"
   style="fill:#ffffff">
			<path
   class="st21"
   d="m 2753.7,2044.2 c 2.6,3.7 12.9,18.6 18.6,31 0.4,0.8 1.4,1.1 2.2,0.5 47.5,-35.6 41.3,-91.2 17,-128.4 -0.8,-1.2 -2.6,-0.6 -2.6,0.8 0.2,21.6 -4.5,42.3 -21.7,56.3 -0.3,0.2 -0.5,0.6 -0.5,0.9 -2.2,19.1 -7,29.9 -12.9,37.1 -0.5,0.6 -0.5,1.3 -0.1,1.8 z"
   id="path55"
   style="fill:#ffffff" />
			<path
   class="st21"
   d="m 2629.8,2044.2 c -2.6,3.7 -12.9,18.6 -18.6,31 -0.4,0.8 -1.4,1.1 -2.2,0.5 -47.5,-35.6 -41.3,-91.2 -17,-128.4 0.8,-1.2 2.6,-0.6 2.6,0.8 -0.2,21.6 4.5,42.3 21.7,56.3 0.3,0.2 0.5,0.6 0.5,0.9 2.2,19.1 7,29.9 12.9,37.1 0.4,0.6 0.5,1.3 0.1,1.8 z"
   id="path56"
   style="fill:#ffffff" />
		</g>
	</g>
</svg>
