<?xml version="1.0" encoding="UTF-8" standalone="no"?>
<!-- Generator: Adobe Illustrator 27.4.0, SVG Export Plug-In . SVG Version: 6.00 Build 0)  -->

<svg
   version="1.1"
   x="0px"
   y="0px"
   viewBox="0 0 249.99998 249.99996"
   xml:space="preserve"
   id="svg57"
   width="250"
   height="250"
   xmlns="http://www.w3.org/2000/svg"
   xmlns:svg="http://www.w3.org/2000/svg"><defs
   id="defs57" />
<style
   type="text/css"
   id="style1">
	.st0{fill:url(#SVGID_1_);}
	.st1{font-family:'GothamBold';}
	.st2{font-size:215.1452px;}
	.st3{fill:#3FA12A;}
	.st4{fill:#E62828;}
	.st5{fill:#2981EF;}
	.st6{fill:#FABF00;}
	.st7{fill:#81B8EE;}
	.st8{fill:#9FA19E;}
	.st9{fill:#915121;}
	.st10{fill:#AEA981;}
	.st11{fill:#EE4179;}
	.st12{fill:#91A11A;}
	.st13{fill:#9241CC;}
	.st14{fill:#FF7F00;}
	.st15{fill:#3FD9FF;}
	.st16{fill:#704070;}
	.st17{fill:#50413E;}
	.st18{fill:#60A1B7;}
	.st19{fill:#5160E1;}
	.st20{fill:#EE70EE;}
	.st21{fill:#FFFFFF;}
</style>


<path
   class="st21"
   d="m 229.77262,122.45 c -9.7001,-5.8 -19,-1.2 -27.9,5.7 2.1999,-8.1 3.5,-15.8 3.5,-22.7 0,-44.4 -36.0001,-80.4 -80.40008,-80.4 -44.400103,0 -80.400103,36 -80.400103,80.4 0,6.9 1.2,14.6 3.4001,22.7 -8.9001,-6.9 -18.2001,-11.4 -27.8001,-5.6 -13.5999993,9.2 -20.59999929,26 -16.7998993,41.3 0.6999,2.7 4,3.6 6,1.6 3.7998993,-3.7 6.6998993,-6.3 11.5999993,-8 8.5999,-1.8 4.6999,18.9 19.7999,26.2 13.1,1.1 21.2001,-6.8 25.3,-13.8 17.4001,29.9 41.700003,55.1 58.900103,55.1 16.7999,0 41.19988,-25.4 58.79988,-55.4 4.0001,7.0999 12.2002,15.2 25.5001,14 15.1,-7.3 11.2001,-28 19.8,-26.2 4.9001,1.7 7.8,4.2999 11.6,8 2,1.9 5.3,1 6,-1.6 3.7,-15.3 -3.3,-32.1 -16.8999,-41.3 z m -127.80008,-9.3 c -7.300003,2.8 -17.200003,-5.3 -22.100003,-18 -4.8,-12.7 -2.8,-25.3 4.5,-28.1 7.3,-2.8 17.200003,5.3 22.100003,18 4.9,12.7 2.9,25.3 -4.5,28.1 z m 68.09988,-18 c -4.7999,12.7 -14.6999,20.8 -22.09988,18 -7.3,-2.8 -9.4001,-15.4 -4.5,-28.1 4.9,-12.7 14.69998,-20.8 22.09988,-18 7.3001,2.8 9.3001,15.4 4.5,28.1 z"
   id="path53"
   style="fill:#ffffff" />
</svg>
