<?xml version="1.0" encoding="UTF-8" standalone="no"?>
<!-- Generator: Adobe Illustrator 27.4.0, SVG Export Plug-In . SVG Version: 6.00 Build 0)  -->

<svg
   version="1.1"
   x="0px"
   y="0px"
   viewBox="0 0 250.00002 249.99999"
   xml:space="preserve"
   id="svg57"
   width="250"
   height="250"
   xmlns="http://www.w3.org/2000/svg"
   xmlns:svg="http://www.w3.org/2000/svg"><defs
   id="defs57" />
<style
   type="text/css"
   id="style1">
	.st0{fill:url(#SVGID_1_);}
	.st1{font-family:'GothamBold';}
	.st2{font-size:215.1452px;}
	.st3{fill:#3FA12A;}
	.st4{fill:#E62828;}
	.st5{fill:#2981EF;}
	.st6{fill:#FABF00;}
	.st7{fill:#81B8EE;}
	.st8{fill:#9FA19E;}
	.st9{fill:#915121;}
	.st10{fill:#AEA981;}
	.st11{fill:#EE4179;}
	.st12{fill:#91A11A;}
	.st13{fill:#9241CC;}
	.st14{fill:#FF7F00;}
	.st15{fill:#3FD9FF;}
	.st16{fill:#704070;}
	.st17{fill:#50413E;}
	.st18{fill:#60A1B7;}
	.st19{fill:#5160E1;}
	.st20{fill:#EE70EE;}
	.st21{fill:#FFFFFF;}
</style>


<path
   class="st21"
   d="m 190.20451,140.84085 c 0,-0.1 -0.1,-0.2 -0.2,-0.3 -29.6,-51.700014 -46,-91.500014 -61.6,-135.5000135 -1.0999,-3.2000001 -5.5999,-3.2000001 -6.7999,0 -15.6,43.9999995 -31.999997,83.7999995 -61.599998,135.5000135 -0.1,0.1 -0.1,0.2 -0.2,0.3 -30.900099,67.5 28.900001,107.4 65.199998,106.5 36.2,1 96.0999,-39 65.1999,-106.5 z m -10.3,53.1 c -10.4,17.7 -28.7999,33.5 -55.2999,35.1 0.2999,0 -0.3,0 0,0 -22.3,-0.7 -42.200097,-13.5 -53.599997,-34 -1.9,-3.5 1.5,-7.5 5.3,-6.1 31.399997,11.8 68.299997,10.6 98.199897,-1.2 3.9,-1.5 7.5,2.6 5.4,6.2 z"
   id="path24"
   style="fill:#ffffff" />
</svg>
