<?xml version="1.0" encoding="UTF-8" standalone="no"?>
<!-- Generator: Adobe Illustrator 27.4.0, SVG Export Plug-In . SVG Version: 6.00 Build 0)  -->

<svg
   version="1.1"
   x="0px"
   y="0px"
   viewBox="0 0 250 249.99999"
   xml:space="preserve"
   id="svg57"
   width="250"
   height="250"
   xmlns="http://www.w3.org/2000/svg"
   xmlns:svg="http://www.w3.org/2000/svg"><defs
   id="defs57" />
<style
   type="text/css"
   id="style1">
	.st0{fill:url(#SVGID_1_);}
	.st1{font-family:'GothamBold';}
	.st2{font-size:215.1452px;}
	.st3{fill:#3FA12A;}
	.st4{fill:#E62828;}
	.st5{fill:#2981EF;}
	.st6{fill:#FABF00;}
	.st7{fill:#81B8EE;}
	.st8{fill:#9FA19E;}
	.st9{fill:#915121;}
	.st10{fill:#AEA981;}
	.st11{fill:#EE4179;}
	.st12{fill:#91A11A;}
	.st13{fill:#9241CC;}
	.st14{fill:#FF7F00;}
	.st15{fill:#3FD9FF;}
	.st16{fill:#704070;}
	.st17{fill:#50413E;}
	.st18{fill:#60A1B7;}
	.st19{fill:#5160E1;}
	.st20{fill:#EE70EE;}
	.st21{fill:#FFFFFF;}
</style>


<path
   class="st21"
   d="m 28.657096,225.3013 c 4.2,-58.5 17.9,-122.1 52.8,-164.50001 0.3,-0.3 0.7,-0.6 1.1,-0.7 l 135.999994,-40 c 1.7,-0.5 3.2,1.1 2.7,2.7 -12.2,38.8 -49.2,67.5 -102.39999,89.50001 l 68.79999,-13.700009 c 1.9,-0.4 3.3,1.800009 2.2,3.400009 -18.8,27.4 -51.5,40.5 -89.19999,48.5 l 53.59999,-2.8 c 1.9,-0.1 3,2.2 1.7,3.6 -20.2,21.8 -47.19999,28.5 -83.599994,29.3 l -35.8,47.7 c -2.7,3.4 -8.2,1.3 -7.9,-3 z"
   id="path26"
   style="fill:#ffffff" />
</svg>
