<?xml version="1.0" encoding="UTF-8" standalone="no"?>
<!-- Generator: Adobe Illustrator 27.4.0, SVG Export Plug-In . SVG Version: 6.00 Build 0)  -->

<svg
   version="1.1"
   x="0px"
   y="0px"
   viewBox="0 0 250.00001 249.99998"
   xml:space="preserve"
   id="svg57"
   width="250"
   height="250"
   xmlns="http://www.w3.org/2000/svg"
   xmlns:svg="http://www.w3.org/2000/svg"><defs
   id="defs57" />
<style
   type="text/css"
   id="style1">
	.st0{fill:url(#SVGID_1_);}
	.st1{font-family:'GothamBold';}
	.st2{font-size:215.1452px;}
	.st3{fill:#3FA12A;}
	.st4{fill:#E62828;}
	.st5{fill:#2981EF;}
	.st6{fill:#FABF00;}
	.st7{fill:#81B8EE;}
	.st8{fill:#9FA19E;}
	.st9{fill:#915121;}
	.st10{fill:#AEA981;}
	.st11{fill:#EE4179;}
	.st12{fill:#91A11A;}
	.st13{fill:#9241CC;}
	.st14{fill:#FF7F00;}
	.st15{fill:#3FD9FF;}
	.st16{fill:#704070;}
	.st17{fill:#50413E;}
	.st18{fill:#60A1B7;}
	.st19{fill:#5160E1;}
	.st20{fill:#EE70EE;}
	.st21{fill:#FFFFFF;}
</style>


<g
   id="g45"
   style="fill:#ffffff"
   transform="translate(-2000.1,-1260.3666)">
		<path
   class="st21"
   d="m 2056.5,1317.3 c 47.6,-51.3 92.6,-53.7 134.7,0.1 0.4,0.6 0.4,1.4 -0.1,1.9 -43.3,43.9 -88.2,41.2 -134.4,0.1 -0.7,-0.6 -0.7,-1.5 -0.2,-2.1 z"
   id="path41"
   style="fill:#ffffff" />
		<path
   class="st21"
   d="m 2144,1444.8 c -13.4,5.9 -26.9,5.9 -40.3,0 -0.8,-0.3 -1.1,-1.2 -0.7,-2 l 9.6,-18.9 c 0.3,-0.6 1,-0.9 1.7,-0.7 6.3,1.9 12.7,1.9 19,0 0.7,-0.2 1.4,0.1 1.7,0.7 l 9.6,18.9 c 0.5,0.7 0.2,1.6 -0.6,2 z"
   id="path42"
   style="fill:#ffffff" />
		<path
   class="st21"
   d="m 2158,1475.8 c -22.4,10.9 -45.2,10.2 -68.3,0 -0.7,-0.3 -1.1,-1.2 -0.7,-2 l 9.3,-18.6 c 0.3,-0.7 1.1,-1 1.8,-0.7 16.3,6 32.5,6.7 47.5,0.1 0.7,-0.3 1.5,0 1.9,0.7 l 9.2,18.6 c 0.3,0.7 0,1.6 -0.7,1.9 z"
   id="path43"
   style="fill:#ffffff" />
		<path
   class="st21"
   d="m 2135.1,1374 c 12.2,29.8 27.3,72.8 39.8,116.2 0.7,2.5 3.7,3.4 5.7,1.8 52.2,-42.4 60.5,-102.1 25.4,-155.8 -1.3,-2 -4.1,-2.2 -5.7,-0.4 -15.9,17.5 -37.3,27.9 -62.6,33.3 -2.2,0.5 -3.4,2.9 -2.6,4.9 z"
   id="path44"
   style="fill:#ffffff" />
		<path
   class="st21"
   d="m 2115.1,1374 c -12.2,29.8 -27.3,72.8 -39.8,116.2 -0.7,2.5 -3.7,3.4 -5.7,1.8 -52.2,-42.4 -60.5,-102.1 -25.4,-155.8 1.3,-2 4.1,-2.2 5.7,-0.4 15.9,17.5 37.3,27.9 62.6,33.3 2.2,0.5 3.4,2.9 2.6,4.9 z"
   id="path45"
   style="fill:#ffffff" />
	</g>
</svg>
