<?xml version="1.0" encoding="UTF-8" standalone="no"?>
<!-- Generator: Adobe Illustrator 27.4.0, SVG Export Plug-In . SVG Version: 6.00 Build 0)  -->

<svg
   version="1.1"
   x="0px"
   y="0px"
   viewBox="0 0 250.00001 249.99999"
   xml:space="preserve"
   id="svg57"
   width="250"
   height="250"
   xmlns="http://www.w3.org/2000/svg"
   xmlns:svg="http://www.w3.org/2000/svg"><defs
   id="defs57" />
<style
   type="text/css"
   id="style1">
	.st0{fill:url(#SVGID_1_);}
	.st1{font-family:'GothamBold';}
	.st2{font-size:215.1452px;}
	.st3{fill:#3FA12A;}
	.st4{fill:#E62828;}
	.st5{fill:#2981EF;}
	.st6{fill:#FABF00;}
	.st7{fill:#81B8EE;}
	.st8{fill:#9FA19E;}
	.st9{fill:#915121;}
	.st10{fill:#AEA981;}
	.st11{fill:#EE4179;}
	.st12{fill:#91A11A;}
	.st13{fill:#9241CC;}
	.st14{fill:#FF7F00;}
	.st15{fill:#3FD9FF;}
	.st16{fill:#704070;}
	.st17{fill:#50413E;}
	.st18{fill:#60A1B7;}
	.st19{fill:#5160E1;}
	.st20{fill:#EE70EE;}
	.st21{fill:#FFFFFF;}
</style>


<path
   class="st21"
   d="m 120.19621,14.66096 c -23.699997,31.1 -45.699997,67.1 -66.499997,106.70001 -0.5,0.9 -0.2,2.1 0.6,2.7 22,17.5 43.9,33.7 65.599997,47.8 0.8,0.5 1.2,1.6 0.9,2.5 l -19.5,58.9 c -0.7,2.1 1.9,3.8 3.5,2.3 l 81.90004,-76.3 c 0.9,-0.8 0.9,-2.3 0,-3.1 -12.9,-12.6 -25.5,-23.5 -37.5,-32.2 -1,-0.7 -1.2,-2.1 -0.5,-3.1 l 47.4,-62.00001 c 0.8,-1 0.5,-2.5 -0.6,-3.2 l -72.70004,-41.4 c -0.8,-0.7 -2,-0.4 -2.6,0.4 z"
   id="path25"
   style="fill:#ffffff" />
</svg>
