<?xml version="1.0" encoding="UTF-8" standalone="no"?>
<!-- Generator: Adobe Illustrator 27.4.0, SVG Export Plug-In . SVG Version: 6.00 Build 0)  -->

<svg
   version="1.1"
   x="0px"
   y="0px"
   viewBox="0 0 250.00001 249.99998"
   xml:space="preserve"
   id="svg57"
   width="250"
   height="250"
   xmlns="http://www.w3.org/2000/svg"
   xmlns:svg="http://www.w3.org/2000/svg"><defs
   id="defs57" />
<style
   type="text/css"
   id="style1">
	.st0{fill:url(#SVGID_1_);}
	.st1{font-family:'GothamBold';}
	.st2{font-size:215.1452px;}
	.st3{fill:#3FA12A;}
	.st4{fill:#E62828;}
	.st5{fill:#2981EF;}
	.st6{fill:#FABF00;}
	.st7{fill:#81B8EE;}
	.st8{fill:#9FA19E;}
	.st9{fill:#915121;}
	.st10{fill:#AEA981;}
	.st11{fill:#EE4179;}
	.st12{fill:#91A11A;}
	.st13{fill:#9241CC;}
	.st14{fill:#FF7F00;}
	.st15{fill:#3FD9FF;}
	.st16{fill:#704070;}
	.st17{fill:#50413E;}
	.st18{fill:#60A1B7;}
	.st19{fill:#5160E1;}
	.st20{fill:#EE70EE;}
	.st21{fill:#FFFFFF;}
</style>


<g
   id="g29"
   style="fill:#ffffff"
   transform="translate(-866.8,-1260.4)">
		<path
   class="st21"
   d="m 1096.4,1339.1 -58.3,-58.3 c -1.4,-1.4 -3.2,-2.1 -5.1,-2.1 h -82.4 c -1.9,0 -3.7,0.8 -5.1,2.1 l -58.3,58.3 c -1.4,1.4 -2.1,3.2 -2.1,5.1 v 82.4 c 0,1.9 0.8,3.7 2.1,5.1 l 58.3,58.3 c 1.4,1.4 3.2,2.1 5.1,2.1 h 82.4 c 1.9,0 3.7,-0.8 5.1,-2.1 l 58.3,-58.3 c 1.4,-1.4 2.1,-3.2 2.1,-5.1 v -82.4 c 0,-1.9 -0.8,-3.7 -2.1,-5.1 z m -68.5,-40.2 c 29.8,0.5 46.4,15.4 47.8,46.8 0.1,1.3 -1.5,2 -2.5,1.1 l -46.4,-45.4 c -0.8,-1 -0.2,-2.5 1.1,-2.5 z m -49.4,176.2 c -53.2,-1.6 -78.1,-29.4 -78.3,-80 0,-1.3 1.6,-1.9 2.5,-1 l 76.9,78.5 c 0.9,1 0.2,2.5 -1.1,2.5 z m 26.6,0 c -1.3,0 -2,-1.5 -1.1,-2.5 l 76.9,-78.5 c 0.9,-0.9 2.5,-0.3 2.5,1 -0.2,50.6 -25.1,78.4 -78.3,80 z"
   id="path28"
   style="fill:#ffffff" />
	</g>
</svg>
