<?xml version="1.0" encoding="UTF-8" standalone="no"?>
<!-- Generator: Adobe Illustrator 27.4.0, SVG Export Plug-In . SVG Version: 6.00 Build 0)  -->

<svg
   version="1.1"
   x="0px"
   y="0px"
   viewBox="0 0 249.99998 249.99997"
   xml:space="preserve"
   id="svg57"
   width="250"
   height="250"
   xmlns="http://www.w3.org/2000/svg"
   xmlns:svg="http://www.w3.org/2000/svg"><defs
   id="defs57" />
<style
   type="text/css"
   id="style1">
	.st0{fill:url(#SVGID_1_);}
	.st1{font-family:'GothamBold';}
	.st2{font-size:215.1452px;}
	.st3{fill:#3FA12A;}
	.st4{fill:#E62828;}
	.st5{fill:#2981EF;}
	.st6{fill:#FABF00;}
	.st7{fill:#81B8EE;}
	.st8{fill:#9FA19E;}
	.st9{fill:#915121;}
	.st10{fill:#AEA981;}
	.st11{fill:#EE4179;}
	.st12{fill:#91A11A;}
	.st13{fill:#9241CC;}
	.st14{fill:#FF7F00;}
	.st15{fill:#3FD9FF;}
	.st16{fill:#704070;}
	.st17{fill:#50413E;}
	.st18{fill:#60A1B7;}
	.st19{fill:#5160E1;}
	.st20{fill:#EE70EE;}
	.st21{fill:#FFFFFF;}
</style>


<g
   id="g39"
   style="fill:#ffffff"
   transform="translate(-2000.0935,-1883.4819)">
		<path
   class="st21"
   d="m 2128.7,2024.8 c -0.6,-1.9 -2.6,-3 -4.5,-2.4 l -86.5,25.6 c -1.2,0.3 -1.4,1.9 -0.4,2.6 l 85.6,59.8 c 0.5,0.4 1.2,0.3 1.7,0 L 2148,2093 c 0.5,-0.4 0.7,-1 0.5,-1.6 z"
   id="path37"
   style="fill:#ffffff" />
		<path
   class="st21"
   d="m 2120.2,1996.2 -13.6,-45.7 c -0.2,-0.8 0.2,-1.6 1,-1.8 l 18,-5.3 c 0,0 0.1,0 0.1,0 l 69.6,-27.3 c 0.7,-0.3 1.1,-1 0.9,-1.7 l -2.1,-7.1 c -0.2,-0.6 -0.7,-1 -1.4,-1 h -129.5 c -0.6,0 -1.2,0.4 -1.4,1 l -41.9,120.2 c -0.4,1.1 0.6,2.2 1.8,1.9 l 96,-28.5 c 1.9,-0.8 3,-2.8 2.5,-4.7 z m -31.8,-56.6 c -0.1,0.1 -0.2,0.2 -0.3,0.3 -12.7,9.5 -27,-4.8 -17.5,-17.5 0.1,-0.1 0.2,-0.2 0.3,-0.3 12.7,-9.5 26.9,4.7 17.5,17.5 z"
   id="path38"
   style="fill:#ffffff" />
		<path
   class="st21"
   d="m 2230.3,2030.4 -27,-91.6 c -0.2,-0.8 -1.1,-1.2 -1.9,-0.9 l -64,25.1 c -1.7,0.7 -2.7,2.6 -2.1,4.4 l 32.2,108.6 c 0.3,1 1.4,1.3 2.2,0.7 l 60.1,-44.7 c 0.5,-0.4 0.7,-1 0.5,-1.6 z m -42.3,-35.6 c -0.1,0.1 -0.2,0.2 -0.3,0.3 -17.7,13.3 -37.6,-6.6 -24.4,-24.4 0.1,-0.1 0.2,-0.2 0.3,-0.3 17.8,-13.3 37.7,6.6 24.4,24.4 z"
   id="path39"
   style="fill:#ffffff" />
	</g>
</svg>
