<?xml version="1.0" encoding="UTF-8" standalone="no"?>
<!-- Generator: Adobe Illustrator 27.4.0, SVG Export Plug-In . SVG Version: 6.00 Build 0)  -->

<svg
   version="1.1"
   x="0px"
   y="0px"
   viewBox="0 0 250.00001 249.99999"
   xml:space="preserve"
   id="svg57"
   width="250"
   height="250"
   xmlns="http://www.w3.org/2000/svg"
   xmlns:svg="http://www.w3.org/2000/svg"><defs
   id="defs57" />
<style
   type="text/css"
   id="style1">
	.st0{fill:url(#SVGID_1_);}
	.st1{font-family:'GothamBold';}
	.st2{font-size:215.1452px;}
	.st3{fill:#3FA12A;}
	.st4{fill:#E62828;}
	.st5{fill:#2981EF;}
	.st6{fill:#FABF00;}
	.st7{fill:#81B8EE;}
	.st8{fill:#9FA19E;}
	.st9{fill:#915121;}
	.st10{fill:#AEA981;}
	.st11{fill:#EE4179;}
	.st12{fill:#91A11A;}
	.st13{fill:#9241CC;}
	.st14{fill:#FF7F00;}
	.st15{fill:#3FD9FF;}
	.st16{fill:#704070;}
	.st17{fill:#50413E;}
	.st18{fill:#60A1B7;}
	.st19{fill:#5160E1;}
	.st20{fill:#EE70EE;}
	.st21{fill:#FFFFFF;}
</style>


<path
   class="st21"
   d="m 85.769742,225.76071 c -24.2999,-14 -38.1,-29.1 -41.6999,-70.6 0,-0.1 0,-0.2 0,-0.3 3.6999,-28.3 -0.4001,-32.8 49.2999,-79.100008 0,0 0.1,-0.1 0.1,-0.1 15.399998,-11.2 24.799998,-37.3 4.5,-57.5 -0.9,-0.9 -0.3,-2.4 0.9,-2.5 19.499998,-1.4 39.299998,2.4 51.299998,23.9 0.1,0.1 0.1,0.2 0.1,0.4 4.5,16.2 -0.1,27.4 -6.2,43.6 -8.8,25.799998 -6.3,36.299998 2.5,41.400008 1.2,0.7 2.5,-0.4 2.1,-1.7 -9,-27.700008 4.4,-37.400008 27.6,-40.300008 1.3,-0.2 2.2,1.4 1.2,2.4 -10.3,10.9 -1.3,32.499998 19.70004,54.800008 0.1,0.1 0.2,0.2 0.2,0.3 30.7,56.2 -27.40004,96.8 -75.80004,94 -1.5,-0.1 -1.9,-2 -0.6,-2.7 16.5,-8.9 44.1,-32.1 19.2,-52.8 -0.1,-0.1 -0.1,-0.1 -0.2,-0.1 -23,-13.7 -40.899998,-33 -42.699998,-64.80001 -0.1,-1.3 -1.8,-1.9 -2.6,-0.8 -28.2,36.50001 -26.5999,75.20001 -7.0999,110.80001 0.9,1.1 -0.5,2.5 -1.8001,1.7 z"
   id="path23"
   style="fill:#ffffff" />
</svg>
