<?xml version="1.0" encoding="UTF-8" standalone="no"?>
<!-- Generator: Adobe Illustrator 27.4.0, SVG Export Plug-In . SVG Version: 6.00 Build 0)  -->

<svg
   version="1.1"
   x="0px"
   y="0px"
   viewBox="0 0 250.00001 249.99998"
   xml:space="preserve"
   id="svg57"
   width="250"
   height="250"
   xmlns="http://www.w3.org/2000/svg"
   xmlns:svg="http://www.w3.org/2000/svg"><defs
   id="defs57" />
<style
   type="text/css"
   id="style1">
	.st0{fill:url(#SVGID_1_);}
	.st1{font-family:'GothamBold';}
	.st2{font-size:215.1452px;}
	.st3{fill:#3FA12A;}
	.st4{fill:#E62828;}
	.st5{fill:#2981EF;}
	.st6{fill:#FABF00;}
	.st7{fill:#81B8EE;}
	.st8{fill:#9FA19E;}
	.st9{fill:#915121;}
	.st10{fill:#AEA981;}
	.st11{fill:#EE4179;}
	.st12{fill:#91A11A;}
	.st13{fill:#9241CC;}
	.st14{fill:#FF7F00;}
	.st15{fill:#3FD9FF;}
	.st16{fill:#704070;}
	.st17{fill:#50413E;}
	.st18{fill:#60A1B7;}
	.st19{fill:#5160E1;}
	.st20{fill:#EE70EE;}
	.st21{fill:#FFFFFF;}
</style>


<path
   class="st21"
   d="m 220.28266,164.35 c -15.1,-26.5 -15.1,-52.3 0,-78.8 2.6,-4.6 2.7,-10.1 0.3,-14.8 -2.4,-4.7 -7,-7.8 -12.2,-8.4 -32.2,-3.5 -55.1,-16.5 -70.1,-40 -2.7,-4.3 -7.2999,-6.8 -12,-7.1 -0.1,0 -0.2,0 -0.4,0 -0.3,0 -0.6,0 -0.9,0 -0.3,0 -0.6,0 -0.9,0 -0.1,0 -0.2,0 -0.4,0 -4.7,0.4 -9.2,2.8 -12,7.1 -14.999995,23.4 -37.899995,36.5 -70.099995,40 -5.2,0.6 -9.8,3.7 -12.2,8.4 -2.4,4.7 -2.3,10.2 0.3,14.8 15.1,26.5 15.1,52.3 0,78.8 -2.6,4.7 -2.7,10.3 -0.2,15.1 2.5,4.7 7.3,7.8 12.6,8.2 28,2 51,15.4 70.199995,40.9 2.6,3.4 6.2,5.4 10.1,6 0,0 0,0 0.1,0 0.3,0 0.6,0.1 1,0.1 0.3,0 0.7,0 1,0.1 0.1,0 0.2,0 0.3,0 0,0 0,0 0.1,0 0,0 0,0 0.1,0 0.1,0 0.2,0 0.3,0 0.3,0 0.7,0 1,-0.1 0.3,0 0.7,-0.1 1,-0.1 0,0 0,0 0.1,0 3.9,-0.6 7.6,-2.6 10.1,-6 19.2,-25.6 42.2,-38.9 70.2,-40.9 5.3,-0.4 10.1,-3.5 12.6,-8.2 2.8,-4.8 2.7,-10.5 0,-15.1 z m -36.2,-4.4 c -22.0999,5.6 -41.8,17.4 -58.9,35.2 -17.1,-17.8 -36.799895,-29.6 -58.899995,-35.2 8.4,-23.4 8.4,-46.9 -0.1,-70.2 23.9,-5.9 43.599995,-17.1 58.999995,-33.7 15.4,16.5 35.1,27.8 59,33.7 -8.6,23.3 -8.6,46.8 -0.1,70.2 z"
   id="path40"
   style="fill:#ffffff" />
</svg>
