<?xml version="1.0" encoding="UTF-8" standalone="no"?>
<!-- Generator: Adobe Illustrator 27.4.0, SVG Export Plug-In . SVG Version: 6.00 Build 0)  -->

<svg
   version="1.1"
   x="0px"
   y="0px"
   viewBox="0 0 249.99999 249.99997"
   xml:space="preserve"
   id="svg57"
   width="250"
   height="250"
   xmlns="http://www.w3.org/2000/svg"
   xmlns:svg="http://www.w3.org/2000/svg"><defs
   id="defs57" />
<style
   type="text/css"
   id="style1">
	.st0{fill:url(#SVGID_1_);}
	.st1{font-family:'GothamBold';}
	.st2{font-size:215.1452px;}
	.st3{fill:#3FA12A;}
	.st4{fill:#E62828;}
	.st5{fill:#2981EF;}
	.st6{fill:#FABF00;}
	.st7{fill:#81B8EE;}
	.st8{fill:#9FA19E;}
	.st9{fill:#915121;}
	.st10{fill:#AEA981;}
	.st11{fill:#EE4179;}
	.st12{fill:#91A11A;}
	.st13{fill:#9241CC;}
	.st14{fill:#FF7F00;}
	.st15{fill:#3FD9FF;}
	.st16{fill:#704070;}
	.st17{fill:#50413E;}
	.st18{fill:#60A1B7;}
	.st19{fill:#5160E1;}
	.st20{fill:#EE70EE;}
	.st21{fill:#FFFFFF;}
</style>


<path
   class="st21"
   d="m 219.8,35.516691 c -0.7,-2.1 -2.4,-3.7 -4.6,-4.3 -35.3,-9.1 -68.4,4.4 -90.2,35.7 -21.8,-31.3 -54.8,-44.8 -90.2,-35.7 -2.2,0.6 -3.9,2.2 -4.6,4.3 -15.4,47.7 8.1,75.499999 41.5,91.299999 -13.7,11.0999 -16,24.7999 -13.2,39.7999 0.2,0.8 0.7,1.5 1.5,1.9001 16.1,6.8 34,8.0999 45,-3.7 -7,27.4 -12.1,48.9 -9,55.5999 4.6,9.9001 28.3,-46.8 29,-56.8 0.7,10 24.3,66.6 29,56.8 3.1,-6.7 -2,-28.2 -9,-55.5999 11,11.7 28.8,10.5 45,3.7 0.8,-0.3 1.4,-1 1.5,-1.9001 2.9,-14.9 0.5,-28.7 -13.2,-39.7999 33.4,-15.8 56.9,-43.599999 41.5,-91.299999 z m -94.7,89.499999 c -16.8,0 -28.8,-10.4001 -31.6,-18.8 25.8,0.4 31.6,-23.999999 31.6,-23.999999 0,0 5.7,24.399999 31.6,23.999999 -2.8,8.3 -14.8,18.8 -31.6,18.8 z"
   id="path57"
   style="fill:#ffffff" />
</svg>
