<?xml version="1.0" encoding="UTF-8" standalone="no"?>
<!-- Generator: Adobe Illustrator 27.4.0, SVG Export Plug-In . SVG Version: 6.00 Build 0)  -->

<svg
   version="1.1"
   x="0px"
   y="0px"
   viewBox="0 0 249.99998 249.99996"
   xml:space="preserve"
   id="svg57"
   width="250"
   height="250"
   xmlns="http://www.w3.org/2000/svg"
   xmlns:svg="http://www.w3.org/2000/svg"><defs
   id="defs57" />
<style
   type="text/css"
   id="style1">
	.st0{fill:url(#SVGID_1_);}
	.st1{font-family:'GothamBold';}
	.st2{font-size:215.1452px;}
	.st3{fill:#3FA12A;}
	.st4{fill:#E62828;}
	.st5{fill:#2981EF;}
	.st6{fill:#FABF00;}
	.st7{fill:#81B8EE;}
	.st8{fill:#9FA19E;}
	.st9{fill:#915121;}
	.st10{fill:#AEA981;}
	.st11{fill:#EE4179;}
	.st12{fill:#91A11A;}
	.st13{fill:#9241CC;}
	.st14{fill:#FF7F00;}
	.st15{fill:#3FD9FF;}
	.st16{fill:#704070;}
	.st17{fill:#50413E;}
	.st18{fill:#60A1B7;}
	.st19{fill:#5160E1;}
	.st20{fill:#EE70EE;}
	.st21{fill:#FFFFFF;}
</style>


<path
   class="st21"
   d="M 222.05,90.9 V 54.6999 c 0,-0.7999 -0.6,-1.4 -1.4,-1.4 h -36.2 c -0.8,0 -1.4,0.6 -1.4,1.4 v 32.3 L 129.25,55.9 151.5501,33.6 c 0.6,-0.6 0.6,-1.5 0,-2 L 125.95,6 c -0.6,-0.6 -1.5,-0.6 -2,0 l -25.6,25.6 c -0.6,0.5999 -0.6,1.5 0,2 l 22.3,22.3 -53.6,30.9 V 54.7 c 0,-0.8 -0.6,-1.4 -1.4,-1.4 h -36.2 c -0.8,0 -1.4,0.6 -1.4,1.4 v 36.2 c 0,0.8 0.6,1.4 1.4,1.4 h 33.6 v 65.9 c 0,0.1 0,0.2 0,0.4 h -33.7 c -0.8,0 -1.4,0.6 -1.4,1.4 v 36.2 c 0,0.8 0.6,1.4 1.4,1.4 h 36.2 c 0.8,0 1.4,-0.6 1.4,-1.4 V 163 l 53.7,31 -22.4,22.4 c -0.6,0.6 -0.6,1.5 0,2 l 25.6,25.6 c 0.6,0.6 1.5,0.6 2,0 l 25.6001,-25.6 c 0.6,-0.6 0.6,-1.5 0,-2 L 129.05,194 l 53.9,-31.1 v 33.3 c 0,0.8 0.6,1.4 1.4,1.4 h 36.2 c 0.8,0 1.4,-0.6 1.4,-1.4 V 160 c 0,-0.8 -0.6,-1.4 -1.4,-1.4 h -33.9 c 0,-0.1 0,-0.2 0,-0.4 V 92.3 h 33.9 c 0.9,0.1 1.5,-0.6 1.5,-1.4 z m -97.2,-0.3 -30.3,19.5 c -0.4,0.3 -0.7,0.7 -0.7,1.2 v 31.9 c 0,0.8 -0.6,1.4 -1.4,1.4 h -12.9 c -0.8,0 -1.4,-0.6 -1.4,-1.4 v -40.6 l -0.3,-0.5 38.5,-24.8 c 0.6999,-0.4 1.5999,-0.2 2,0.4 l 7,10.8 c 0.3,0.7 0.1,1.6 -0.5,2.1 z"
   id="path52"
   style="fill:#ffffff" />
</svg>
