<?xml version="1.0" encoding="UTF-8" standalone="no"?>
<!-- Generator: Adobe Illustrator 27.4.0, SVG Export Plug-In . SVG Version: 6.00 Build 0)  -->

<svg
   version="1.1"
   x="0px"
   y="0px"
   viewBox="0 0 250.00001 249.99998"
   xml:space="preserve"
   id="svg57"
   width="250"
   height="250"
   xmlns="http://www.w3.org/2000/svg"
   xmlns:svg="http://www.w3.org/2000/svg"><defs
   id="defs57" />
<style
   type="text/css"
   id="style1">
	.st0{fill:url(#SVGID_1_);}
	.st1{font-family:'GothamBold';}
	.st2{font-size:215.1452px;}
	.st3{fill:#3FA12A;}
	.st4{fill:#E62828;}
	.st5{fill:#2981EF;}
	.st6{fill:#FABF00;}
	.st7{fill:#81B8EE;}
	.st8{fill:#9FA19E;}
	.st9{fill:#915121;}
	.st10{fill:#AEA981;}
	.st11{fill:#EE4179;}
	.st12{fill:#91A11A;}
	.st13{fill:#9241CC;}
	.st14{fill:#FF7F00;}
	.st15{fill:#3FD9FF;}
	.st16{fill:#704070;}
	.st17{fill:#50413E;}
	.st18{fill:#60A1B7;}
	.st19{fill:#5160E1;}
	.st20{fill:#EE70EE;}
	.st21{fill:#FFFFFF;}
</style>


<g
   id="g34"
   style="fill:#ffffff"
   transform="translate(-313.88846,-1260.45)">
		<path
   class="st21"
   d="m 536.4,1438.2 -0.8,-0.5 -0.8,0.5 c -0.4,0.2 -0.7,0.4 -1,0.5 l -86.5,33.6 c -2.3,0.9 -4.8,1.4 -7.3,1.4 -2.4,0 -4.9,-0.4 -7.1,-1.3 L 344,1438.7 c -0.3,-0.1 -0.7,-0.3 -1,-0.5 l -0.8,-0.5 -0.8,0.5 c -2.7,1.7 -4.3,4.8 -3.9,8.1 0.3,3.3 2.4,6 5.5,7.1 l 88.9,33.7 c 2.6,1 5.4,1.5 8.2,1.5 0,0 0,0 0,0 2.9,0 5.7,-0.5 8.3,-1.6 l 86.5,-33.6 c 3.1,-1.2 5.1,-3.9 5.4,-7.2 0.3,-3.2 -1.2,-6.3 -3.9,-8 z"
   id="path30"
   style="fill:#ffffff" />
		<path
   class="st21"
   d="m 343.5,1419.2 88.9,33.7 c 5,1.9 10.5,1.9 15.5,-0.1 l 86.5,-33.6 c 6,-2.3 6.1,-10.8 0.1,-13.2 l -86.3,-35.1 c -5.2,-2.1 -10.9,-2.1 -16.1,-0.1 l -88.7,35.1 c -6,2.4 -5.9,11 0.1,13.3 z"
   id="path31"
   style="fill:#ffffff" />
		<path
   class="st21"
   d="m 390.3,1321.3 h -36.2 c -0.8,0 -1.4,-0.6 -1.4,-1.4 v -36.2 c 0,-0.8 0.6,-1.4 1.4,-1.4 h 36.2 c 0.8,0 1.4,0.6 1.4,1.4 v 36.2 c 0,0.8 -0.6,1.4 -1.4,1.4 z"
   id="path32"
   style="fill:#ffffff" />
		<path
   class="st21"
   d="m 515.9,1339.1 h -30.3 c -0.8,0 -1.4,-0.6 -1.4,-1.4 v -30.3 c 0,-0.8 0.6,-1.4 1.4,-1.4 h 30.3 c 0.8,0 1.4,0.6 1.4,1.4 v 30.3 c 0.1,0.7 -0.6,1.4 -1.4,1.4 z"
   id="path33"
   style="fill:#ffffff" />
		<path
   class="st21"
   d="m 426.5,1354.5 h -25.6 c -0.8,0 -1.4,-0.6 -1.4,-1.4 v -25.6 c 0,-0.8 0.6,-1.4 1.4,-1.4 h 25.6 c 0.8,0 1.4,0.6 1.4,1.4 v 25.6 c 0,0.7 -0.6,1.4 -1.4,1.4 z"
   id="path34"
   style="fill:#ffffff" />
	</g>
</svg>
